<?xml version="1.0" encoding="UTF-8" standalone="no"?>
<!DOCTYPE svg PUBLIC "-//W3C//DTD SVG 1.1//EN" "http://www.w3.org/Graphics/SVG/1.1/DTD/svg11.dtd">
<svg width="100%" height="100%" viewBox="0 0 3561 421" version="1.1" xmlns="http://www.w3.org/2000/svg" xmlns:xlink="http://www.w3.org/1999/xlink" xml:space="preserve" xmlns:serif="http://www.serif.com/" style="fill-rule:evenodd;clip-rule:evenodd;stroke-linejoin:round;stroke-miterlimit:2;">
    <g transform="matrix(1,0,0,1,-47.6929,-8.44288)">
        <g transform="matrix(4.16667,0,0,4.16667,-995.089,-7.84161)">
            <g transform="matrix(0.186843,0,0,0.24,250.267,3.90616)">
                <path d="M2624.11,420.55L2564.23,420.55L2564.23,325.203L2293.39,325.203L2293.39,274.535L2624.11,274.535L2624.11,420.55ZM2191.59,420.55L2131.71,420.55L2131.71,337.639L1858.57,337.639L1858.57,288.814L1912,288.814L1917.53,247.359L1830.93,247.359L1830.93,197.612L2221.53,197.612L2221.53,247.359L2136.78,247.359L2136.78,288.814L2191.59,288.814L2191.59,420.55ZM2698.26,341.785C2698.26,330.423 2700.34,319.906 2704.48,310.233C2708.63,300.56 2714.39,292.269 2721.76,285.36C2729.13,278.45 2737.88,273.076 2748.01,269.238C2758.14,265.4 2769.05,263.48 2780.71,263.48L2960.35,263.48C2972.02,263.48 2982.92,265.4 2993.06,269.238C3003.19,273.076 3011.94,278.45 3019.31,285.36C3026.68,292.269 3032.44,300.56 3036.58,310.233C3040.73,319.906 3042.8,330.423 3042.8,341.785C3042.8,353.147 3040.73,363.664 3036.58,373.337C3032.44,383.01 3026.68,391.301 3019.31,398.21C3011.94,405.119 3003.19,410.493 2993.06,414.332C2982.92,418.17 2972.02,420.089 2960.35,420.089L2780.71,420.089C2769.05,420.089 2758.14,418.17 2748.01,414.332C2737.88,410.493 2729.13,405.119 2721.76,398.21C2714.39,391.301 2708.63,383.01 2704.48,373.337C2700.34,363.664 2698.26,353.147 2698.26,341.785ZM860.423,346.391C860.423,335.336 862.496,325.279 866.641,316.221C870.787,307.162 876.544,299.408 883.914,292.96C891.284,286.511 900.035,281.521 910.169,277.99C920.302,274.458 931.204,272.693 942.872,272.693L1122.51,272.693C1134.18,272.693 1145.08,274.458 1155.21,277.99C1165.35,281.521 1174.1,286.511 1181.47,292.96C1188.84,299.408 1194.6,307.162 1198.74,316.221C1202.89,325.279 1204.96,335.336 1204.96,346.391C1204.96,357.446 1202.89,367.502 1198.74,376.561C1194.6,385.62 1188.84,393.374 1181.47,399.822C1174.1,406.271 1165.35,411.261 1155.21,414.792C1145.08,418.324 1134.18,420.089 1122.51,420.089L942.872,420.089C931.204,420.089 920.302,418.324 910.169,414.792C900.035,411.261 891.284,406.271 883.914,399.822C876.544,393.374 870.787,385.62 866.641,376.561C862.496,367.502 860.423,357.446 860.423,346.391ZM1438.95,341.785C1438.95,330.423 1441.02,319.906 1445.17,310.233C1449.32,300.56 1455.07,292.269 1462.44,285.36C1469.81,278.45 1478.56,273.076 1488.7,269.238C1498.83,265.4 1509.73,263.48 1521.4,263.48L1705.65,263.48C1717.32,263.48 1728.22,265.4 1738.35,269.238C1748.48,273.076 1757.23,278.45 1764.6,285.36C1771.97,292.269 1777.73,300.56 1781.88,310.233C1786.02,319.906 1788.1,330.423 1788.1,341.785C1788.1,353.147 1786.02,363.664 1781.88,373.337C1777.73,383.01 1771.97,391.301 1764.6,398.21C1757.23,405.119 1748.48,410.493 1738.35,414.332C1728.22,418.17 1717.32,420.089 1705.65,420.089L1521.4,420.089C1509.73,420.089 1498.83,418.17 1488.7,414.332C1478.56,410.493 1469.81,405.119 1462.44,398.21C1455.07,391.301 1449.32,383.01 1445.17,373.337C1441.02,363.664 1438.95,353.147 1438.95,341.785ZM22.109,261.177L348.222,261.177L348.222,418.247L22.109,418.247L22.109,261.177ZM4240.85,279.141L4300.73,279.141L4300.73,365.276L4573.88,365.276L4573.88,415.944L4240.85,415.944L4240.85,279.141ZM698.748,179.188L732.833,179.188L732.833,13.827L790.87,13.827L790.87,415.944L732.833,415.944L732.833,229.855L698.748,229.855L698.748,411.338L642.553,411.338L642.553,15.67L698.748,15.67L698.748,179.188ZM4143.2,415.944L4083.33,415.944L4083.33,13.827L4143.2,13.827L4143.2,415.944ZM610.311,298.026C610.311,331.498 602.48,357.446 586.819,375.87C571.159,394.295 548.742,403.507 519.57,403.507C490.398,403.507 467.981,394.295 452.321,375.87C436.66,357.446 428.829,331.498 428.829,298.026L428.829,125.296C428.829,91.825 436.66,65.877 452.321,47.452C467.981,29.028 490.398,19.815 519.57,19.815C548.742,19.815 571.159,29.028 586.819,47.452C602.48,65.877 610.311,91.825 610.311,125.296L610.311,298.026ZM3790.38,53.901L3882.04,53.901L3882.04,4.615L3941.92,4.615L3941.92,53.901L4033.58,53.901L4033.58,103.647L3969.55,103.647L4042.79,397.059L3983.83,397.059L3911.98,99.041L3840.12,397.059L3781.16,397.059L3854.4,103.647L3790.38,103.647L3790.38,53.901ZM3585.4,182.412L3512.17,300.329L3596,386.925L3517.69,386.925L3477.62,346.391C3462.88,362.052 3446.84,373.644 3429.49,381.167C3412.14,388.691 3392.87,392.452 3371.68,392.452C3356.02,392.452 3341.43,389.842 3327.92,384.622C3314.41,379.402 3302.66,372.185 3292.68,362.973C3282.7,353.761 3274.87,342.936 3269.19,330.5C3263.51,318.063 3260.67,304.475 3260.67,289.735C3260.67,278.988 3261.67,268.931 3263.67,259.565C3265.66,250.199 3269.04,241.371 3273.8,233.08C3278.56,224.789 3284.93,216.958 3292.91,209.588C3300.9,202.219 3311.03,195.156 3323.32,188.4C3313.49,177.652 3304.97,165.907 3297.75,153.163C3290.53,140.419 3286.93,126.064 3286.93,110.096C3286.93,98.427 3289.23,87.218 3293.84,76.471C3298.44,65.723 3305.04,56.204 3313.64,47.913C3322.24,39.622 3332.84,32.943 3345.43,27.876C3358.01,22.809 3372.45,20.276 3388.72,20.276C3402.23,20.276 3415.13,22.502 3427.41,26.955C3439.7,31.407 3450.52,37.626 3459.89,45.61C3469.25,53.594 3476.7,63.19 3482.23,74.398C3487.75,85.606 3490.52,98.12 3490.52,111.938C3490.52,131.591 3484.22,148.864 3471.63,163.757C3459.04,178.65 3441.08,191.471 3417.74,202.219L3473.47,260.256L3474.86,257.953L3521.38,182.412L3585.4,182.412ZM919.381,346.391C919.381,354.375 921.761,360.516 926.521,364.816C931.28,369.115 937.652,371.264 945.636,371.264L1119.75,371.264C1127.73,371.264 1134.1,369.115 1138.86,364.816C1143.62,360.516 1146,354.375 1146,346.391C1146,338.407 1143.62,332.265 1138.86,327.966C1134.1,323.667 1127.73,321.518 1119.75,321.518L945.636,321.518C937.652,321.518 931.28,323.667 926.521,327.966C921.761,332.265 919.381,338.407 919.381,346.391ZM2757.22,341.785C2757.22,350.076 2759.6,357.062 2764.36,362.743C2769.12,368.424 2775.49,371.264 2783.48,371.264L2957.59,371.264C2965.57,371.264 2971.95,368.424 2976.7,362.743C2981.46,357.062 2983.84,350.076 2983.84,341.785C2983.84,333.494 2981.46,326.508 2976.7,320.827C2971.95,315.146 2965.57,312.305 2957.59,312.305L2783.48,312.305C2775.49,312.305 2769.12,315.146 2764.36,320.827C2759.6,326.508 2757.22,333.494 2757.22,341.785ZM1497.91,341.785C1497.91,350.076 1500.29,357.062 1505.05,362.743C1509.81,368.424 1516.18,371.264 1524.16,371.264L1702.88,371.264C1710.87,371.264 1717.24,368.424 1722,362.743C1726.76,357.062 1729.14,350.076 1729.14,341.785C1729.14,333.494 1726.76,326.508 1722,320.827C1717.24,315.146 1710.87,312.305 1702.88,312.305L1524.16,312.305C1516.18,312.305 1509.81,315.146 1505.05,320.827C1500.29,326.508 1497.91,333.494 1497.91,341.785ZM81.067,369.422L289.264,369.422L289.264,310.002L81.067,310.002L81.067,369.422ZM485.024,298.026C485.024,316.451 487.634,330.346 492.854,339.712C498.075,349.078 506.98,353.761 519.57,353.761C532.16,353.761 541.065,349.078 546.285,339.712C551.506,330.346 554.116,316.451 554.116,298.026L554.116,125.296C554.116,106.871 551.506,92.976 546.285,83.61C541.065,74.244 532.16,69.562 519.57,69.562C506.98,69.562 498.075,74.244 492.854,83.61C487.634,92.976 485.024,106.871 485.024,125.296L485.024,298.026ZM3375.83,336.257C3387.49,336.257 3398.47,333.878 3408.76,329.118C3419.05,324.358 3429.1,316.758 3438.93,306.317L3362.01,227.552C3347.27,236.151 3337.29,245.67 3332.07,256.11C3326.85,266.551 3324.24,277.759 3324.24,289.735C3324.24,304.475 3329.3,315.914 3339.44,324.051C3349.57,332.189 3361.7,336.257 3375.83,336.257ZM4507.09,13.827L4566.97,13.827L4566.97,310.463L4507.09,310.463L4507.09,13.827ZM1970.96,288.814L2078.74,288.814L2078.74,247.359L1976.49,247.359L1970.96,288.814ZM2564.23,13.827L2624.11,13.827L2624.11,256.11L2564.23,256.11L2564.23,13.827ZM1245.95,159.381L1195.75,159.381L1195.75,256.11L1135.87,256.11L1135.87,13.827L1195.75,13.827L1195.75,107.793L1245.95,107.793L1245.95,159.381ZM852.132,175.964C852.132,164.602 854.205,154.391 858.35,145.333C862.496,136.274 868.253,128.52 875.623,122.072C882.993,115.623 891.744,110.633 901.878,107.102C912.011,103.57 922.913,101.805 934.581,101.805L1003.67,101.805C1015.34,101.805 1026.24,103.57 1036.38,107.102C1046.51,110.633 1055.26,115.623 1062.63,122.072C1070,128.52 1075.76,136.274 1079.9,145.333C1084.05,154.391 1086.12,164.602 1086.12,175.964C1086.12,187.325 1084.05,197.536 1079.9,206.594C1075.76,215.653 1070,223.407 1062.63,229.855C1055.26,236.304 1046.51,241.294 1036.38,244.825C1026.24,248.357 1015.34,250.122 1003.67,250.122L934.581,250.122C922.913,250.122 912.011,248.357 901.878,244.825C891.744,241.294 882.993,236.304 875.623,229.855C868.253,223.407 862.496,215.653 858.35,206.594C854.205,197.536 852.132,187.325 852.132,175.964ZM4216.44,29.028L4440.3,29.028L4406.68,248.28L4346.8,248.28L4357.85,175.503L4211.84,175.503L4211.84,127.599L4365.22,127.599L4372.59,77.853L4216.44,77.853L4216.44,29.028ZM1660.05,105.49L1719,105.49L1719,13.827L1778.88,13.827L1778.88,246.898L1719,246.898L1719,156.157L1660.05,156.157L1660.05,105.49ZM3083.8,155.697L3033.59,155.697L3033.59,246.898L2973.71,246.898L2973.71,13.827L3033.59,13.827L3033.59,104.108L3083.8,104.108L3083.8,155.697ZM398.429,152.472L348.222,152.472L348.222,242.292L288.343,242.292L288.343,13.827L348.222,13.827L348.222,100.883L398.429,100.883L398.429,152.472ZM2433.87,24.882L2523.69,232.619L2461.51,232.619L2392.88,68.18L2324.25,232.619L2262.07,232.619L2351.89,24.882L2433.87,24.882ZM1421.45,26.264L1664.65,26.264L1664.65,74.168L1604.77,74.168L1673.86,228.013L1611.68,228.013L1543.05,71.865L1474.42,228.013L1412.24,228.013L1481.33,74.168L1421.45,74.168L1421.45,26.264ZM2916.13,76.01L2744.33,76.01L2744.33,173.66L2946.07,173.66L2946.07,223.407L2685.37,223.407L2685.37,26.264L2916.13,26.264L2916.13,76.01ZM58.958,167.212L260.706,167.212L260.706,216.958L-0,216.958L-0,26.264L58.958,26.264L58.958,167.212ZM910.169,175.964C910.169,184.255 912.779,190.857 917.999,195.77C923.22,200.683 929.668,203.14 937.345,203.14L1000.91,203.14C1008.59,203.14 1015.03,200.683 1020.25,195.77C1025.48,190.857 1028.09,184.255 1028.09,175.964C1028.09,167.672 1025.48,161.07 1020.25,156.157C1015.03,151.244 1008.59,148.787 1000.91,148.787L937.345,148.787C929.668,148.787 923.22,151.244 917.999,156.157C912.779,161.07 910.169,167.672 910.169,175.964ZM1851.66,93.514C1851.66,82.459 1853.73,72.402 1857.88,63.343C1862.02,54.285 1867.78,46.608 1875.15,40.313C1882.52,34.017 1891.27,29.104 1901.41,25.573C1911.54,22.042 1922.44,20.276 1934.11,20.276L2118.35,20.276C2130.02,20.276 2140.92,22.042 2151.06,25.573C2161.19,29.104 2169.94,34.017 2177.31,40.313C2184.68,46.608 2190.44,54.285 2194.59,63.343C2198.73,72.402 2200.8,82.459 2200.8,93.514C2200.8,104.568 2198.73,114.625 2194.59,123.684C2190.44,132.743 2184.68,140.419 2177.31,146.715C2169.94,153.01 2161.19,157.923 2151.06,161.454C2140.92,164.986 2130.02,166.751 2118.35,166.751L1934.11,166.751C1922.44,166.751 1911.54,164.986 1901.41,161.454C1891.27,157.923 1882.52,153.01 1875.15,146.715C1867.78,140.419 1862.02,132.743 1857.88,123.684C1853.73,114.625 1851.66,104.568 1851.66,93.514ZM3349.57,111.938C3349.57,121.15 3351.95,129.825 3356.71,137.963C3361.47,146.1 3369.07,154.775 3379.51,163.988C3411.75,150.783 3427.87,133.126 3427.87,111.017C3427.87,100.883 3424.19,92.439 3416.82,85.683C3409.45,78.927 3399.93,75.55 3388.26,75.55C3376.59,75.55 3367.23,79.081 3360.16,86.144C3353.1,93.206 3349.57,101.805 3349.57,111.938ZM1910.62,93.514C1910.62,101.498 1913,107.716 1917.76,112.168C1922.52,116.621 1928.89,118.847 1936.87,118.847L2115.59,118.847C2123.57,118.847 2129.95,116.621 2134.71,112.168C2139.47,107.716 2141.85,101.498 2141.85,93.514C2141.85,85.53 2139.47,79.311 2134.71,74.859C2129.95,70.406 2123.57,68.18 2115.59,68.18L1936.87,68.18C1928.89,68.18 1922.52,70.406 1917.76,74.859C1913,79.311 1910.62,85.53 1910.62,93.514ZM845.223,35.476L939.188,35.476L939.188,0.009L999.067,0.009L999.067,35.476L1093.03,35.476L1093.03,84.301L845.223,84.301L845.223,35.476Z" style="fill:white;fill-rule:nonzero;"/>
            </g>
        </g>
    </g>
</svg>
